<?xml version="1.0" encoding="UTF-8" standalone="no"?>
<!-- Generator: Adobe Illustrator 13.0.1, SVG Export Plug-In  -->
<svg xmlns:dc="http://purl.org/dc/elements/1.1/" xmlns:cc="http://creativecommons.org/ns#" xmlns:rdf="http://www.w3.org/1999/02/22-rdf-syntax-ns#" xmlns:svg="http://www.w3.org/2000/svg" xmlns="http://www.w3.org/2000/svg" xmlns:sodipodi="http://sodipodi.sourceforge.net/DTD/sodipodi-0.dtd" xmlns:inkscape="http://www.inkscape.org/namespaces/inkscape" version="1.1" x="0px" y="0px" width="446px" height="271px" viewBox="-9.144 -15.712 446 271" enable-background="new -9.144 -15.712 446 271" xml:space="preserve" id="svg2" inkscape:version="0.48.0 r9654" sodipodi:docname="CIE_1931_XYZ_Color_Matching_Functions.svg"><metadata id="metadata260"><rdf:RDF><cc:Work rdf:about=""><dc:format>image/svg+xml</dc:format><dc:type rdf:resource="http://purl.org/dc/dcmitype/StillImage"/><dc:title/></cc:Work></rdf:RDF></metadata><sodipodi:namedview pagecolor="#ffffff" bordercolor="#666666" borderopacity="1" objecttolerance="10" gridtolerance="10" guidetolerance="10" inkscape:pageopacity="0" inkscape:pageshadow="2" inkscape:window-width="1440" inkscape:window-height="850" id="namedview258" showgrid="false" inkscape:zoom="1.9261993" inkscape:cx="223" inkscape:cy="135.5" inkscape:window-x="-8" inkscape:window-y="-8" inkscape:window-maximized="1" inkscape:current-layer="svg2"/>
<defs id="defs4">

	
	
	
	
	
</defs>















































































<polyline style="fill:none;stroke:#000000;stroke-width:1.5" points="423.668,207.832 33.668,207.832 33.668,7.832 " id="polyline12"/><line style="fill:none;stroke:#000000;stroke-width:1.5" x1="373.668" y1="215.332" x2="373.668" y2="200.332" id="line14"/><line style="fill:none;stroke:#000000;stroke-width:1.5" x1="273.668" y1="215.332" x2="273.668" y2="200.332" id="line16"/><line style="fill:none;stroke:#000000;stroke-width:1.5" x1="173.668" y1="215.332" x2="173.668" y2="200.332" id="line18"/><line style="fill:none;stroke:#000000;stroke-width:1.5" x1="73.667999" y1="215.332" x2="73.667999" y2="200.332" id="line20"/><line style="fill:none;stroke:#000000" x1="83.667999" y1="211.582" x2="83.667999" y2="204.082" id="line22"/><line style="fill:none;stroke:#000000" x1="63.667999" y1="211.582" x2="63.667999" y2="204.082" id="line24"/><line style="fill:none;stroke:#000000" x1="53.667999" y1="211.582" x2="53.667999" y2="204.082" id="line26"/><line style="fill:none;stroke:#000000" x1="43.667999" y1="211.582" x2="43.667999" y2="204.082" id="line28"/><line style="fill:none;stroke:#000000" x1="93.667999" y1="211.582" x2="93.667999" y2="204.082" id="line30"/><line style="fill:none;stroke:#000000" x1="103.668" y1="211.582" x2="103.668" y2="204.082" id="line32"/><line style="fill:none;stroke:#000000" x1="113.668" y1="211.582" x2="113.668" y2="204.082" id="line34"/><line style="fill:none;stroke:#000000" x1="123.668" y1="211.582" x2="123.668" y2="204.082" id="line36"/><line style="fill:none;stroke:#000000" x1="133.668" y1="211.582" x2="133.668" y2="204.082" id="line38"/><line style="fill:none;stroke:#000000" x1="143.668" y1="211.582" x2="143.668" y2="204.082" id="line40"/><line style="fill:none;stroke:#000000" x1="153.668" y1="211.582" x2="153.668" y2="204.082" id="line42"/><line style="fill:none;stroke:#000000" x1="163.668" y1="211.582" x2="163.668" y2="204.082" id="line44"/><line style="fill:none;stroke:#000000" x1="183.668" y1="211.582" x2="183.668" y2="204.082" id="line46"/><line style="fill:none;stroke:#000000" x1="193.668" y1="211.582" x2="193.668" y2="204.082" id="line48"/><line style="fill:none;stroke:#000000" x1="203.668" y1="211.582" x2="203.668" y2="204.082" id="line50"/><line style="fill:none;stroke:#000000" x1="213.668" y1="211.582" x2="213.668" y2="204.082" id="line52"/><line style="fill:none;stroke:#000000" x1="223.668" y1="211.582" x2="223.668" y2="204.082" id="line54"/><line style="fill:none;stroke:#000000" x1="233.668" y1="211.582" x2="233.668" y2="204.082" id="line56"/><line style="fill:none;stroke:#000000" x1="243.668" y1="211.582" x2="243.668" y2="204.082" id="line58"/><line style="fill:none;stroke:#000000" x1="253.668" y1="211.582" x2="253.668" y2="204.082" id="line60"/><line style="fill:none;stroke:#000000" x1="263.668" y1="211.582" x2="263.668" y2="204.082" id="line62"/><line style="fill:none;stroke:#000000" x1="283.668" y1="211.582" x2="283.668" y2="204.082" id="line64"/><line style="fill:none;stroke:#000000" x1="293.668" y1="211.582" x2="293.668" y2="204.082" id="line66"/><line style="fill:none;stroke:#000000" x1="303.668" y1="211.582" x2="303.668" y2="204.082" id="line68"/><line style="fill:none;stroke:#000000" x1="313.668" y1="211.582" x2="313.668" y2="204.082" id="line70"/><line style="fill:none;stroke:#000000" x1="323.668" y1="211.582" x2="323.668" y2="204.082" id="line72"/><line style="fill:none;stroke:#000000" x1="333.668" y1="211.582" x2="333.668" y2="204.082" id="line74"/><line style="fill:none;stroke:#000000" x1="343.668" y1="211.582" x2="343.668" y2="204.082" id="line76"/><line style="fill:none;stroke:#000000" x1="353.668" y1="211.582" x2="353.668" y2="204.082" id="line78"/><line style="fill:none;stroke:#000000" x1="363.668" y1="211.582" x2="363.668" y2="204.082" id="line80"/><line style="fill:none;stroke:#000000" x1="383.668" y1="211.582" x2="383.668" y2="204.082" id="line82"/><line style="fill:none;stroke:#000000" x1="393.668" y1="211.582" x2="393.668" y2="204.082" id="line84"/><line style="fill:none;stroke:#000000" x1="403.668" y1="211.582" x2="403.668" y2="204.082" id="line86"/><line style="fill:none;stroke:#000000" x1="413.668" y1="211.582" x2="413.668" y2="204.082" id="line88"/><line style="fill:none;stroke:#000000" x1="423.668" y1="211.582" x2="423.668" y2="204.082" id="line90"/><line style="fill:none;stroke:#000000;stroke-width:1.5" x1="26.167999" y1="107.82216" x2="41.167999" y2="107.82216" id="line92"/><line style="fill:none;stroke:#000000;stroke-width:1.5" x1="26.167999" y1="207.832" x2="41.167999" y2="207.832" id="line94"/><line style="fill:none;stroke:#000000;stroke-width:1.5" x1="26.167999" y1="7.8732486" x2="41.167999" y2="7.8732486" id="line96"/><line style="fill:none;stroke:#000000;stroke-width:1" x1="29.917999" y1="27.863031" x2="37.417999" y2="27.863031" id="line118"/><line style="fill:none;stroke:#000000;stroke-width:1" x1="29.917999" y1="47.852814" x2="37.417999" y2="47.852814" id="line120"/><line style="fill:none;stroke:#000000;stroke-width:1" x1="29.917999" y1="67.842598" x2="37.417999" y2="67.842598" id="line122"/><line style="fill:none;stroke:#000000;stroke-width:1" x1="29.917999" y1="87.832382" x2="37.417999" y2="87.832382" id="line124"/><line style="fill:none;stroke:#000000;stroke-width:1" x1="29.917999" y1="127.81194" x2="37.417999" y2="127.81194" id="line126"/><line style="fill:none;stroke:#000000;stroke-width:1" x1="29.917999" y1="147.80171" x2="37.417999" y2="147.80171" id="line128"/><line style="fill:none;stroke:#000000;stroke-width:1" x1="29.917999" y1="167.7915" x2="37.417999" y2="167.7915" id="line130"/><line style="fill:none;stroke:#000000;stroke-width:1" x1="29.917999" y1="187.78128" x2="37.417999" y2="187.78128" id="line132"/><text sodipodi:linespacing="125%" id="text3746" y="230.32248" x="162.35408" style="font-size:14px;font-style:normal;font-variant:normal;font-weight:normal;font-stretch:normal;text-align:start;line-height:125%;letter-spacing:0px;word-spacing:0px;writing-mode:lr-tb;text-anchor:start;fill:#000000;fill-opacity:1;stroke:none;font-family:Arial;-inkscape-font-specification:Arial" xml:space="preserve"><tspan y="230.32248" x="162.35408" id="tspan3748" sodipodi:role="line">500</tspan></text>
<line style="color:#000000;fill:none;stroke:#00ff00;stroke-width:1.75000012;stroke-linecap:butt;stroke-linejoin:miter;stroke-miterlimit:4;stroke-opacity:1;stroke-dasharray:none;stroke-dashoffset:0;marker:none;visibility:visible;display:inline;overflow:visible;enable-background:accumulate" x1="318.33301" y1="17.332001" x2="288.33301" y2="17.332001" id="line252"/><line style="fill:none;stroke:#000000;stroke-width:1.75" x1="318.33301" y1="44.832001" x2="288.33301" y2="44.832001" id="line254"/>
<path inkscape:connector-curvature="0" style="fill:none;stroke:#00ff00;stroke-width:1.75000011999999990;stroke-linecap:butt;stroke-linejoin:miter;stroke-opacity:1;display:inline;color:#000000;stroke-miterlimit:4;stroke-dasharray:none;stroke-dashoffset:0;marker:none;visibility:visible;overflow:visible;enable-background:accumulate" d="m 63.103581,206.28354 c 33.330477,-1.27088 34.825518,-6.85594 45.860289,-10.85598 15.95485,-5.78354 25.77921,-10.59339 30.43964,-19.37184 7.97908,-12.50912 21.76214,-27.21623 23.59198,-31.72519 9.55191,-14.9045 16.65187,-51.085561 18.89588,-61.083531 6.85761,-30.553522 16.06999,-66.075165 25.29593,-72.742437 2.32498,-1.2288323 4.97017,-2.1972772 8.51614,-2.4331966 10.19997,-0.8329742 11.8108,7.5197156 18.16334,18.9589086 7.15536,14.345268 9.70684,14.793939 11.76638,22.124732 19.4845,56.722144 22.00414,73.425424 28.49966,91.561164 5.45111,13.71508 11.15618,28.77509 18.88335,40.22529 7.72716,11.45023 16.66268,18.62888 26.1334,20.94882 14.12842,3.46085 15.64558,5.18892 74.24079,4.75819" id="path3394" sodipodi:nodetypes="csccscccccssc"/><polyline style="fill:none;stroke:#000000;stroke-width:1.23775315000000010" points="33.668,207.893 34.668,207.893 35.668,207.893 36.668,207.893   37.668,207.893 38.668,207.893 39.668,207.892 40.668,207.892 41.668,207.892 42.668,207.892 43.668,207.892 44.668,207.891   45.668,207.891 46.668,207.891 47.668,207.891 48.668,207.891 49.668,207.891 50.668,207.89 51.668,207.89 52.668,207.889   53.668,207.889 54.668,207.889 55.668,207.888 56.668,207.887 57.668,207.887 58.668,207.887 59.668,207.885 60.668,207.885   61.668,207.883 62.668,207.882 63.668,207.881 64.668,207.879 65.668,207.877 66.668,207.875 67.668,207.873 68.668,207.871   69.668,207.867 70.668,207.864 71.668,207.861 72.668,207.857 73.668,207.854 74.668,207.85 75.668,207.846 76.668,207.841   77.668,207.836 78.668,207.828 79.668,207.82 80.668,207.811 81.668,207.799 82.668,207.785 83.668,207.771 84.668,207.756   85.668,207.739 86.668,207.721 87.668,207.699 88.668,207.675 89.668,207.646 90.668,207.616 91.668,207.581 92.668,207.54   93.668,207.492 94.668,207.438 95.668,207.377 96.668,207.31 97.668,207.238 98.668,207.162 99.668,207.084 100.668,207.002   101.668,206.916 102.668,206.826 103.668,206.732 104.668,206.635 105.668,206.534 106.668,206.43 107.668,206.321 108.668,206.209   109.668,206.092 110.668,205.971 111.668,205.848 112.668,205.721 113.668,205.593 114.668,205.463 115.668,205.332   116.668,205.197 117.668,205.058 118.668,204.912 119.668,204.762 120.668,204.604 121.668,204.44 122.668,204.27 123.668,204.093   124.668,203.908 125.668,203.716 126.668,203.516 127.668,203.309 128.668,203.093 129.668,202.868 130.668,202.635   131.668,202.395 132.668,202.146 133.668,201.893 134.668,201.633 135.668,201.365 136.668,201.088 137.668,200.801   138.668,200.502 139.668,200.191 140.668,199.865 141.668,199.525 142.668,199.17 143.668,198.795 144.668,198.4 145.668,197.988   146.668,197.556 147.668,197.104 148.668,196.633 149.668,196.139 150.668,195.625 151.668,195.094 152.668,194.547 153.668,193.99   154.668,193.425 155.668,192.846 156.668,192.246 157.668,191.621 158.668,190.963 159.668,190.268 160.668,189.537   161.668,188.766 162.668,187.951 163.668,187.091 164.668,186.181 165.668,185.219 166.668,184.207 167.668,183.145   168.668,182.033 169.668,180.874 170.668,179.663 171.668,178.388 172.668,177.035 173.668,175.593 174.668,174.053   175.668,172.424 176.668,170.723 177.668,168.964 178.668,167.162 179.668,165.33 180.668,163.461 181.668,161.553 182.668,159.599   183.668,157.593 184.668,155.535 185.668,153.441 186.668,151.324 187.668,149.196 188.668,147.072 189.668,144.958   190.668,142.861 191.668,140.805 192.668,138.809 193.668,136.893 194.668,135.074 195.668,133.346 196.668,131.695   197.668,130.109 198.668,128.572 199.668,127.082 200.668,125.643 201.668,124.262 202.668,122.943 203.668,121.692   204.668,120.512 205.668,119.396 206.668,118.343 207.668,117.348 208.668,116.408 209.668,115.519 210.668,114.684 211.668,113.9   212.668,113.17 213.668,112.493 214.668,111.867 215.668,111.292 216.668,110.767 217.668,110.291 218.668,109.862 219.668,109.483   220.668,109.151 221.668,108.861 222.668,108.611 223.668,108.397 224.668,108.222 225.668,108.083 226.668,107.981   227.668,107.918 228.668,107.893 229.668,107.907 230.668,107.962 231.668,108.06 232.668,108.203 233.668,108.393 234.668,108.632   235.668,108.918 236.668,109.248 237.668,109.62 238.668,110.033 239.668,110.484 240.668,110.976 241.668,111.507 242.668,112.079   243.668,112.692 244.668,113.348 245.668,114.042 246.668,114.776 247.668,115.547 248.668,116.353 249.668,117.192   250.668,118.065 251.668,118.972 252.668,119.915 253.668,120.893 254.668,121.906 255.668,122.953 256.668,124.03 257.668,125.135   258.668,126.263 259.668,127.413 260.668,128.584 261.668,129.773 262.668,130.977 263.668,132.192 264.668,133.417 265.668,134.65   266.668,135.893 267.668,137.143 268.668,138.402 269.668,139.671 270.668,140.945 271.668,142.225 272.668,143.508   273.668,144.793 274.668,146.077 275.668,147.361 276.668,148.645 277.668,149.929 278.668,151.213 279.668,152.496   280.668,153.779 281.668,155.057 282.668,156.329 283.668,157.593 284.668,158.846 285.668,160.09 286.668,161.324 287.668,162.553   288.668,163.772 289.668,164.984 290.668,166.189 291.668,167.39 292.668,168.59 293.668,169.793 294.668,171.001 295.668,172.21   296.668,173.415 297.668,174.611 298.668,175.793 299.668,176.959 300.668,178.107 301.668,179.233 302.668,180.33 303.668,181.393   304.668,182.416 305.668,183.404 306.668,184.359 307.668,185.287 308.668,186.192 309.668,187.076 310.668,187.938   311.668,188.777 312.668,189.596 313.668,190.393 314.668,191.17 315.668,191.928 316.668,192.665 317.668,193.38 318.668,194.072   319.668,194.742 320.668,195.391 321.668,196.015 322.668,196.615 323.668,197.192 324.668,197.745 325.668,198.273 326.668,198.78   327.668,199.266 328.668,199.732 329.668,200.181 330.668,200.609 331.668,201.021 332.668,201.416 333.668,201.793   334.668,202.152 335.668,202.497 336.668,202.825 337.668,203.138 338.668,203.435 339.668,203.717 340.668,203.984   341.668,204.236 342.668,204.473 343.668,204.692 344.668,204.896 345.668,205.085 346.668,205.26 347.668,205.422 348.668,205.572   349.668,205.713 350.668,205.842 351.668,205.965 352.668,206.08 353.668,206.192 354.668,206.303 355.668,206.408 356.668,206.512   357.668,206.609 358.668,206.701 359.668,206.785 360.668,206.865 361.668,206.939 362.668,207.008 363.668,207.072   364.668,207.131 365.668,207.184 366.668,207.233 367.668,207.279 368.668,207.32 369.668,207.358 370.668,207.393 371.668,207.425   372.668,207.455 373.668,207.482 374.668,207.509 375.668,207.533 376.668,207.557 377.668,207.579 378.668,207.6 379.668,207.619   380.668,207.637 381.668,207.653 382.668,207.669 383.668,207.684 384.668,207.697 385.668,207.71 386.668,207.723 387.668,207.733   388.668,207.744 389.668,207.754 390.668,207.764 391.668,207.771 392.668,207.78 393.668,207.788 394.668,207.795 395.668,207.801   396.668,207.808 397.668,207.813 398.668,207.818 399.668,207.824 400.668,207.828 401.668,207.832 402.668,207.837   403.668,207.841 404.668,207.844 405.668,207.848 406.668,207.851 407.668,207.854 408.668,207.856 409.668,207.859   410.668,207.861 411.668,207.863 412.668,207.865 413.668,207.867 414.668,207.869 415.668,207.871 416.668,207.873   417.668,207.874 418.668,207.875 419.668,207.877 420.668,207.878 421.668,207.879 422.668,207.88 423.668,207.881 " id="polyline8" transform="matrix(1,0,0,1.9989782,0,-207.68057)"/><text xml:space="preserve" style="font-size:14px;font-style:normal;font-variant:normal;font-weight:normal;font-stretch:normal;text-align:start;line-height:125%;letter-spacing:0px;word-spacing:0px;writing-mode:lr-tb;text-anchor:start;fill:#000000;fill-opacity:1;stroke:none;font-family:Arial;-inkscape-font-specification:Arial" x="4.873239" y="12.322482" id="text3726" sodipodi:linespacing="125%"><tspan sodipodi:role="line" id="tspan3728" x="4.873239" y="12.322482">1.0</tspan></text>
<text xml:space="preserve" style="font-size:14px;font-style:normal;font-variant:normal;font-weight:normal;font-stretch:normal;text-align:start;line-height:125%;letter-spacing:0px;word-spacing:0px;writing-mode:lr-tb;text-anchor:start;fill:#000000;fill-opacity:1;stroke:none;font-family:Arial;-inkscape-font-specification:Arial" x="4.8732419" y="112.32249" id="text3734" sodipodi:linespacing="125%"><tspan sodipodi:role="line" id="tspan3736" x="4.8732419" y="112.32249">0.5</tspan></text>
<text sodipodi:linespacing="125%" id="text3738" y="212.32248" x="4.8732419" style="font-size:14px;font-style:normal;font-variant:normal;font-weight:normal;font-stretch:normal;text-align:start;line-height:125%;letter-spacing:0px;word-spacing:0px;writing-mode:lr-tb;text-anchor:start;fill:#000000;fill-opacity:1;stroke:none;font-family:Arial;-inkscape-font-specification:Arial" xml:space="preserve"><tspan y="212.32248" x="4.8732419" id="tspan3740" sodipodi:role="line">0.0</tspan></text>
<text xml:space="preserve" style="font-size:14px;font-style:normal;font-variant:normal;font-weight:normal;font-stretch:normal;text-align:start;line-height:125%;letter-spacing:0px;word-spacing:0px;writing-mode:lr-tb;text-anchor:start;fill:#000000;fill-opacity:1;stroke:none;font-family:Arial;-inkscape-font-specification:Arial" x="61.83493" y="230.32248" id="text3742" sodipodi:linespacing="125%"><tspan sodipodi:role="line" id="tspan3744" x="61.83493" y="230.32248">400</tspan></text>
<text xml:space="preserve" style="font-size:14px;font-style:normal;font-variant:normal;font-weight:normal;font-stretch:normal;text-align:start;line-height:125%;letter-spacing:0px;word-spacing:0px;writing-mode:lr-tb;text-anchor:start;fill:#000000;fill-opacity:1;stroke:none;font-family:Arial;-inkscape-font-specification:Arial" x="261.8349" y="230.32248" id="text3750" sodipodi:linespacing="125%"><tspan sodipodi:role="line" id="tspan3752" x="261.8349" y="230.32248">600</tspan></text>
<text sodipodi:linespacing="125%" id="text3754" y="230.32248" x="361.8349" style="font-size:14px;font-style:normal;font-variant:normal;font-weight:normal;font-stretch:normal;text-align:start;line-height:125%;letter-spacing:0px;word-spacing:0px;writing-mode:lr-tb;text-anchor:start;fill:#000000;fill-opacity:1;stroke:none;font-family:Arial;-inkscape-font-specification:Arial" xml:space="preserve"><tspan y="230.32248" x="361.8349" id="tspan3756" sodipodi:role="line">700</tspan></text>
<text xml:space="preserve" style="font-size:14px;font-style:normal;font-variant:normal;font-weight:normal;font-stretch:normal;text-align:start;line-height:125%;letter-spacing:0px;word-spacing:0px;writing-mode:lr-tb;text-anchor:start;fill:#000000;fill-opacity:1;stroke:none;font-family:Arial;-inkscape-font-specification:Arial" x="210.11653" y="245.92209" id="text3758" sodipodi:linespacing="125%"><tspan sodipodi:role="line" id="tspan3760" x="210.11653" y="245.92209">λ/nm</tspan></text>
<text sodipodi:linespacing="125%" id="text3762" y="48.931679" x="324.31384" style="font-size:14px;font-style:normal;font-variant:normal;font-weight:normal;font-stretch:normal;text-align:start;line-height:125%;letter-spacing:0px;word-spacing:0px;writing-mode:lr-tb;text-anchor:start;fill:#000000;fill-opacity:1;stroke:none;font-family:Arial;-inkscape-font-specification:Arial" xml:space="preserve"><tspan y="48.931679" x="324.31384" id="tspan3764" sodipodi:role="line">ȳ(λ)</tspan></text>
<text xml:space="preserve" style="font-size:14px;font-style:normal;font-variant:normal;font-weight:normal;font-stretch:normal;text-align:start;line-height:97.00000286%;letter-spacing:0px;word-spacing:0px;writing-mode:lr-tb;text-anchor:start;fill:#000000;fill-opacity:1;stroke:none;font-family:Arial;-inkscape-font-specification:Arial" x="324.31384" y="15.450836" id="text3783" sodipodi:linespacing="97.000003%"><tspan sodipodi:role="line" id="tspan3785" x="324.31384" y="15.450836">Normalized</tspan><tspan sodipodi:role="line" x="324.31384" y="29.030836" id="tspan3787">M cone response</tspan></text>
</svg>